<svg width="32" height="31" viewBox="0 0 32 31" fill="none" xmlns="http://www.w3.org/2000/svg">
<path d="M3.55556 0H28.4444C29.3874 0 30.2918 0.384242 30.9586 1.0682C31.6254 1.75215 32 2.6798 32 3.64706V27.3529C32 28.3202 31.6254 29.2478 30.9586 29.9318C30.2918 30.6158 29.3874 31 28.4444 31H24.7928L16 19.911L7.20721 31H3.55556C2.61256 31 1.70819 30.6158 1.0414 29.9318C0.374602 29.2478 0 28.3202 0 27.3529V3.64706C0 2.6798 0.374602 1.75215 1.0414 1.0682C1.70819 0.384242 2.61256 0 3.55556 0Z" fill="#57BA98"/>
</svg>
